<mxfile host="Electron" agent="Mozilla/5.0 (X11; Linux x86_64) AppleWebKit/537.36 (KHTML, like Gecko) draw.io/24.7.17 Chrome/128.0.6613.36 Electron/32.0.1 Safari/537.36" version="24.7.17">
  <diagram name="Page-1" id="kuyQ8Ffgp0a_dQGPY02l">
    <mxGraphModel dx="1478" dy="943" grid="1" gridSize="10" guides="1" tooltips="1" connect="1" arrows="1" fold="1" page="1" pageScale="1" pageWidth="850" pageHeight="1100" math="0" shadow="0">
      <root>
        <mxCell id="0" />
        <mxCell id="1" parent="0" />
        <mxCell id="Ns06nyAxxZCVgoRq7tHa-11" value="" style="endArrow=classic;startArrow=classic;html=1;rounded=0;entryX=0.1;entryY=0.02;entryDx=0;entryDy=0;entryPerimeter=0;exitX=0.98;exitY=0.98;exitDx=0;exitDy=0;exitPerimeter=0;" parent="1" source="8N-HG8ODMe7yR5lK4It6-2" target="8N-HG8ODMe7yR5lK4It6-6" edge="1">
          <mxGeometry width="50" height="50" relative="1" as="geometry">
            <mxPoint x="266" y="218.33333333333326" as="sourcePoint" />
            <mxPoint x="326" y="291.66666666666674" as="targetPoint" />
          </mxGeometry>
        </mxCell>
        <mxCell id="Ns06nyAxxZCVgoRq7tHa-46" value="" style="endArrow=none;dashed=1;html=1;dashPattern=1 3;strokeWidth=2;rounded=0;exitX=0.5;exitY=0.045;exitDx=0;exitDy=0;exitPerimeter=0;entryX=0.98;entryY=0.98;entryDx=0;entryDy=0;entryPerimeter=0;" parent="1" source="Ns06nyAxxZCVgoRq7tHa-39" target="Ns06nyAxxZCVgoRq7tHa-34" edge="1">
          <mxGeometry width="50" height="50" relative="1" as="geometry">
            <mxPoint x="354" y="98" as="sourcePoint" />
            <mxPoint x="465" y="195" as="targetPoint" />
          </mxGeometry>
        </mxCell>
        <mxCell id="Ns06nyAxxZCVgoRq7tHa-45" value="" style="endArrow=none;dashed=1;html=1;dashPattern=1 3;strokeWidth=2;rounded=0;exitX=0.15;exitY=0.135;exitDx=0;exitDy=0;exitPerimeter=0;entryX=0.98;entryY=0.98;entryDx=0;entryDy=0;entryPerimeter=0;" parent="1" source="Ns06nyAxxZCVgoRq7tHa-37" target="Ns06nyAxxZCVgoRq7tHa-34" edge="1">
          <mxGeometry width="50" height="50" relative="1" as="geometry">
            <mxPoint x="344" y="88" as="sourcePoint" />
            <mxPoint x="455" y="185" as="targetPoint" />
          </mxGeometry>
        </mxCell>
        <mxCell id="Ns06nyAxxZCVgoRq7tHa-44" value="" style="endArrow=none;dashed=1;html=1;dashPattern=1 3;strokeWidth=2;rounded=0;exitX=0.5;exitY=1;exitDx=0;exitDy=0;exitPerimeter=0;entryX=0.98;entryY=0.98;entryDx=0;entryDy=0;entryPerimeter=0;" parent="1" source="Ns06nyAxxZCVgoRq7tHa-36" target="Ns06nyAxxZCVgoRq7tHa-34" edge="1">
          <mxGeometry width="50" height="50" relative="1" as="geometry">
            <mxPoint x="364" y="290" as="sourcePoint" />
            <mxPoint x="414" y="240" as="targetPoint" />
          </mxGeometry>
        </mxCell>
        <mxCell id="Ns06nyAxxZCVgoRq7tHa-31" value="&lt;b&gt;&lt;u&gt;&lt;font style=&quot;font-size: 17px;&quot;&gt;Simulated online chat rooms / deliberative platforms&lt;/font&gt;&lt;/u&gt;&lt;/b&gt;" style="text;html=1;align=center;verticalAlign=middle;whiteSpace=wrap;rounded=0;" parent="1" vertex="1">
          <mxGeometry x="146" y="6" width="464" height="30" as="geometry" />
        </mxCell>
        <mxCell id="Ns06nyAxxZCVgoRq7tHa-63" value="" style="group" parent="1" vertex="1" connectable="0">
          <mxGeometry x="368" y="40" width="326" height="330" as="geometry" />
        </mxCell>
        <mxCell id="Ns06nyAxxZCVgoRq7tHa-32" value="" style="group" parent="Ns06nyAxxZCVgoRq7tHa-63" vertex="1" connectable="0">
          <mxGeometry y="20" width="326" height="310" as="geometry" />
        </mxCell>
        <mxCell id="Ns06nyAxxZCVgoRq7tHa-47" value="" style="shape=mxgraph.signs.safety.store_right_up_1;html=1;pointerEvents=1;fillColor=#000000;strokeColor=none;verticalLabelPosition=bottom;verticalAlign=top;align=center;sketch=0;rotation=-181;" parent="Ns06nyAxxZCVgoRq7tHa-32" vertex="1">
          <mxGeometry x="290" y="101" width="36" height="30" as="geometry" />
        </mxCell>
        <mxCell id="Ns06nyAxxZCVgoRq7tHa-48" value="Toxicity" style="shape=mxgraph.signs.safety.biohazard;html=1;pointerEvents=1;fillColor=#d5e8d4;strokeColor=#82b366;verticalLabelPosition=bottom;verticalAlign=top;align=center;sketch=0;" parent="Ns06nyAxxZCVgoRq7tHa-32" vertex="1">
          <mxGeometry x="232" y="86" width="58" height="50" as="geometry" />
        </mxCell>
        <mxCell id="Ns06nyAxxZCVgoRq7tHa-49" value="Discussion Quality" style="shape=mxgraph.signs.safety.handle_with_care;html=1;pointerEvents=1;fillColor=#d5e8d4;strokeColor=#82b366;verticalLabelPosition=bottom;verticalAlign=top;align=center;sketch=0;" parent="Ns06nyAxxZCVgoRq7tHa-32" vertex="1">
          <mxGeometry x="238.75" y="1" width="44.5" height="46.5" as="geometry" />
        </mxCell>
        <mxCell id="Ns06nyAxxZCVgoRq7tHa-50" value="" style="shape=mxgraph.signs.safety.store_right_up_1;html=1;pointerEvents=1;fillColor=#000000;strokeColor=none;verticalLabelPosition=bottom;verticalAlign=top;align=center;sketch=0;rotation=0;" parent="Ns06nyAxxZCVgoRq7tHa-32" vertex="1">
          <mxGeometry x="290" y="9.25" width="36" height="30" as="geometry" />
        </mxCell>
        <mxCell id="Ns06nyAxxZCVgoRq7tHa-57" value="" style="group;" parent="Ns06nyAxxZCVgoRq7tHa-32" vertex="1" connectable="0">
          <mxGeometry x="226" y="171" width="76" height="60" as="geometry" />
        </mxCell>
        <mxCell id="Ns06nyAxxZCVgoRq7tHa-53" value="" style="verticalLabelPosition=bottom;verticalAlign=top;html=1;shape=mxgraph.basic.acute_triangle;dx=0.5;fillColor=#d5e8d4;strokeColor=#82b366;" parent="Ns06nyAxxZCVgoRq7tHa-57" vertex="1">
          <mxGeometry x="25.755555555555556" y="40" width="24.488888888888887" height="20" as="geometry" />
        </mxCell>
        <mxCell id="Ns06nyAxxZCVgoRq7tHa-54" value="" style="verticalLabelPosition=bottom;verticalAlign=top;html=1;shape=mxgraph.basic.rect;fillColor2=none;strokeWidth=1;size=20;indent=5;fillColor=#d5e8d4;strokeColor=#82b366;" parent="Ns06nyAxxZCVgoRq7tHa-57" vertex="1">
          <mxGeometry y="30" width="76" height="10" as="geometry" />
        </mxCell>
        <mxCell id="Ns06nyAxxZCVgoRq7tHa-55" value="" style="shape=umlActor;verticalLabelPosition=bottom;verticalAlign=top;html=1;outlineConnect=0;fillColor=#d5e8d4;strokeColor=#82b366;" parent="Ns06nyAxxZCVgoRq7tHa-57" vertex="1">
          <mxGeometry width="16.88888888888889" height="30" as="geometry" />
        </mxCell>
        <mxCell id="Ns06nyAxxZCVgoRq7tHa-56" value="" style="shape=umlActor;verticalLabelPosition=bottom;verticalAlign=top;html=1;outlineConnect=0;fillColor=#d5e8d4;strokeColor=#82b366;" parent="Ns06nyAxxZCVgoRq7tHa-57" vertex="1">
          <mxGeometry x="59.111111111111114" width="16.88888888888889" height="30" as="geometry" />
        </mxCell>
        <mxCell id="Ns06nyAxxZCVgoRq7tHa-58" value="Equal Participation" style="text;html=1;align=center;verticalAlign=middle;whiteSpace=wrap;rounded=0;" parent="Ns06nyAxxZCVgoRq7tHa-32" vertex="1">
          <mxGeometry x="229" y="241" width="70" height="20" as="geometry" />
        </mxCell>
        <mxCell id="Ns06nyAxxZCVgoRq7tHa-59" value="" style="ellipse;whiteSpace=wrap;html=1;" parent="Ns06nyAxxZCVgoRq7tHa-32" vertex="1">
          <mxGeometry x="243" y="281" width="10" height="10" as="geometry" />
        </mxCell>
        <mxCell id="Ns06nyAxxZCVgoRq7tHa-36" value="Strategies" style="shape=mxgraph.signs.healthcare.mental_health;html=1;pointerEvents=1;fillColor=#dae8fc;strokeColor=#6c8ebf;verticalLabelPosition=bottom;verticalAlign=top;align=center;sketch=0;" parent="Ns06nyAxxZCVgoRq7tHa-32" vertex="1">
          <mxGeometry x="58" y="231" width="40" height="40" as="geometry" />
        </mxCell>
        <mxCell id="Ns06nyAxxZCVgoRq7tHa-37" value="Model" style="shape=mxgraph.signs.healthcare.brain;html=1;pointerEvents=1;fillColor=#dae8fc;strokeColor=#6c8ebf;verticalLabelPosition=bottom;verticalAlign=top;align=center;sketch=0;" parent="Ns06nyAxxZCVgoRq7tHa-32" vertex="1">
          <mxGeometry x="108" y="232.25" width="40" height="38.75" as="geometry" />
        </mxCell>
        <mxCell id="Ns06nyAxxZCVgoRq7tHa-39" value="" style="whiteSpace=wrap;html=1;shape=mxgraph.basic.oval_callout;fillColor=#dae8fc;strokeColor=#6c8ebf;" parent="Ns06nyAxxZCVgoRq7tHa-32" vertex="1">
          <mxGeometry x="158" y="231" width="44" height="41.25" as="geometry" />
        </mxCell>
        <mxCell id="Ns06nyAxxZCVgoRq7tHa-40" value="Prompts" style="text;html=1;align=center;verticalAlign=middle;resizable=0;points=[];autosize=1;" parent="Ns06nyAxxZCVgoRq7tHa-32" vertex="1">
          <mxGeometry x="148" y="268" width="70" height="30" as="geometry" />
        </mxCell>
        <mxCell id="8N-HG8ODMe7yR5lK4It6-5" value="LLM User" style="sketch=0;aspect=fixed;pointerEvents=1;shadow=0;dashed=0;html=1;strokeColor=#d79b00;labelPosition=center;verticalLabelPosition=bottom;verticalAlign=top;align=center;fillColor=#ffe6cc;shape=mxgraph.azure.laptop" parent="Ns06nyAxxZCVgoRq7tHa-32" vertex="1">
          <mxGeometry x="48" y="120" width="60" height="36" as="geometry" />
        </mxCell>
        <mxCell id="Ns06nyAxxZCVgoRq7tHa-61" value="" style="ellipse;whiteSpace=wrap;html=1;" parent="Ns06nyAxxZCVgoRq7tHa-63" vertex="1">
          <mxGeometry x="257" y="301" width="10" height="10" as="geometry" />
        </mxCell>
        <mxCell id="Ns06nyAxxZCVgoRq7tHa-62" value="" style="ellipse;whiteSpace=wrap;html=1;" parent="Ns06nyAxxZCVgoRq7tHa-63" vertex="1">
          <mxGeometry x="271" y="301" width="10" height="10" as="geometry" />
        </mxCell>
        <mxCell id="Ns06nyAxxZCVgoRq7tHa-8" value="" style="endArrow=classic;startArrow=classic;html=1;rounded=0;exitX=0.9;exitY=0.02;exitDx=0;exitDy=0;exitPerimeter=0;entryX=0.02;entryY=0.98;entryDx=0;entryDy=0;entryPerimeter=0;" parent="1" source="8N-HG8ODMe7yR5lK4It6-2" target="8N-HG8ODMe7yR5lK4It6-3" edge="1">
          <mxGeometry width="50" height="50" relative="1" as="geometry">
            <mxPoint x="266" y="181.66666666666674" as="sourcePoint" />
            <mxPoint x="326" y="108.33333333333326" as="targetPoint" />
          </mxGeometry>
        </mxCell>
        <mxCell id="Ns06nyAxxZCVgoRq7tHa-12" value="" style="endArrow=classic;startArrow=classic;html=1;rounded=0;exitX=0.9;exitY=0.02;exitDx=0;exitDy=0;exitPerimeter=0;" parent="1" source="8N-HG8ODMe7yR5lK4It6-6" edge="1">
          <mxGeometry width="50" height="50" relative="1" as="geometry">
            <mxPoint x="356" y="293.5000000000001" as="sourcePoint" />
            <mxPoint x="426" y="216.5" as="targetPoint" />
          </mxGeometry>
        </mxCell>
        <mxCell id="Ns06nyAxxZCVgoRq7tHa-34" value="LLM Moderator/&lt;div&gt;Facilitator&lt;/div&gt;" style="sketch=0;aspect=fixed;pointerEvents=1;shadow=0;dashed=0;html=1;strokeColor=none;labelPosition=center;verticalLabelPosition=bottom;verticalAlign=top;align=center;fillColor=#00188D;shape=mxgraph.azure.laptop" parent="1" vertex="1">
          <mxGeometry x="299.33" y="175" width="83.33" height="50" as="geometry" />
        </mxCell>
        <mxCell id="Ns06nyAxxZCVgoRq7tHa-35" value="" style="shape=mxgraph.signs.healthcare.eye;html=1;pointerEvents=1;fillColor=#dae8fc;strokeColor=#6c8ebf;verticalLabelPosition=bottom;verticalAlign=top;align=center;sketch=0;" parent="1" vertex="1">
          <mxGeometry x="321" y="185" width="40" height="20" as="geometry" />
        </mxCell>
        <mxCell id="8N-HG8ODMe7yR5lK4It6-2" value="LLM User" style="sketch=0;aspect=fixed;pointerEvents=1;shadow=0;dashed=0;html=1;strokeColor=#d79b00;labelPosition=center;verticalLabelPosition=bottom;verticalAlign=top;align=center;fillColor=#ffe6cc;shape=mxgraph.azure.laptop" parent="1" vertex="1">
          <mxGeometry x="216" y="177" width="60" height="36" as="geometry" />
        </mxCell>
        <mxCell id="8N-HG8ODMe7yR5lK4It6-4" value="" style="endArrow=classic;startArrow=classic;html=1;rounded=0;entryX=0.98;entryY=0.98;entryDx=0;entryDy=0;entryPerimeter=0;" parent="1" target="8N-HG8ODMe7yR5lK4It6-3" edge="1">
          <mxGeometry width="50" height="50" relative="1" as="geometry">
            <mxPoint x="426" y="183.5000000000001" as="sourcePoint" />
            <mxPoint x="356" y="106.5" as="targetPoint" />
          </mxGeometry>
        </mxCell>
        <mxCell id="8N-HG8ODMe7yR5lK4It6-3" value="LLM User" style="sketch=0;aspect=fixed;pointerEvents=1;shadow=0;dashed=0;html=1;strokeColor=#d79b00;labelPosition=center;verticalLabelPosition=bottom;verticalAlign=top;align=center;fillColor=#ffe6cc;shape=mxgraph.azure.laptop" parent="1" vertex="1">
          <mxGeometry x="310.99" y="60" width="60" height="36" as="geometry" />
        </mxCell>
        <mxCell id="8N-HG8ODMe7yR5lK4It6-6" value="LLM User" style="sketch=0;aspect=fixed;pointerEvents=1;shadow=0;dashed=0;html=1;strokeColor=#d79b00;labelPosition=center;verticalLabelPosition=bottom;verticalAlign=top;align=center;fillColor=#ffe6cc;shape=mxgraph.azure.laptop" parent="1" vertex="1">
          <mxGeometry x="310.99" y="290" width="60" height="36" as="geometry" />
        </mxCell>
        <mxCell id="8N-HG8ODMe7yR5lK4It6-7" value="Strategies" style="shape=mxgraph.signs.healthcare.mental_health;html=1;pointerEvents=1;fillColor=#ffe6cc;strokeColor=#d79b00;verticalLabelPosition=bottom;verticalAlign=top;align=center;sketch=0;" parent="1" vertex="1">
          <mxGeometry x="132" y="40" width="40" height="40" as="geometry" />
        </mxCell>
        <mxCell id="8N-HG8ODMe7yR5lK4It6-8" value="Model" style="shape=mxgraph.signs.healthcare.brain;html=1;pointerEvents=1;fillColor=#ffe6cc;strokeColor=#d79b00;verticalLabelPosition=bottom;verticalAlign=top;align=center;sketch=0;" parent="1" vertex="1">
          <mxGeometry x="182" y="41.25" width="40" height="38.75" as="geometry" />
        </mxCell>
        <mxCell id="8N-HG8ODMe7yR5lK4It6-9" value="" style="whiteSpace=wrap;html=1;shape=mxgraph.basic.oval_callout;fillColor=#ffe6cc;strokeColor=#d79b00;" parent="1" vertex="1">
          <mxGeometry x="232" y="40" width="44" height="41.25" as="geometry" />
        </mxCell>
        <mxCell id="8N-HG8ODMe7yR5lK4It6-10" value="Prompts" style="text;html=1;align=center;verticalAlign=middle;resizable=0;points=[];autosize=1;" parent="1" vertex="1">
          <mxGeometry x="219" y="78" width="70" height="30" as="geometry" />
        </mxCell>
        <mxCell id="8N-HG8ODMe7yR5lK4It6-11" value="" style="shape=mxgraph.signs.safety.store_right_up_1;html=1;pointerEvents=1;fillColor=#000000;strokeColor=none;verticalLabelPosition=bottom;verticalAlign=top;align=center;sketch=0;rotation=-1;" parent="1" vertex="1">
          <mxGeometry x="80" y="150" width="36" height="30" as="geometry" />
        </mxCell>
        <mxCell id="8N-HG8ODMe7yR5lK4It6-12" value="Toxicity" style="shape=mxgraph.signs.safety.biohazard;html=1;pointerEvents=1;fillColor=#f8cecc;strokeColor=#b85450;verticalLabelPosition=bottom;verticalAlign=top;align=center;sketch=0;" parent="1" vertex="1">
          <mxGeometry x="22" y="135" width="58" height="50" as="geometry" />
        </mxCell>
        <mxCell id="8N-HG8ODMe7yR5lK4It6-13" value="Discussion Quality" style="shape=mxgraph.signs.safety.handle_with_care;html=1;pointerEvents=1;fillColor=#f8cecc;strokeColor=#b85450;verticalLabelPosition=bottom;verticalAlign=top;align=center;sketch=0;" parent="1" vertex="1">
          <mxGeometry x="28.75" y="50" width="44.5" height="46.5" as="geometry" />
        </mxCell>
        <mxCell id="8N-HG8ODMe7yR5lK4It6-14" value="" style="shape=mxgraph.signs.safety.store_right_up_1;html=1;pointerEvents=1;fillColor=#000000;strokeColor=none;verticalLabelPosition=bottom;verticalAlign=top;align=center;sketch=0;rotation=-181;" parent="1" vertex="1">
          <mxGeometry x="80" y="58.25" width="36" height="30" as="geometry" />
        </mxCell>
        <mxCell id="8N-HG8ODMe7yR5lK4It6-15" value="" style="group;" parent="1" vertex="1" connectable="0">
          <mxGeometry x="16" y="220" width="76" height="60" as="geometry" />
        </mxCell>
        <mxCell id="8N-HG8ODMe7yR5lK4It6-16" value="" style="verticalLabelPosition=bottom;verticalAlign=top;html=1;shape=mxgraph.basic.acute_triangle;dx=0.5;fillColor=#f8cecc;strokeColor=#b85450;" parent="8N-HG8ODMe7yR5lK4It6-15" vertex="1">
          <mxGeometry x="25.755555555555556" y="40" width="24.488888888888887" height="20" as="geometry" />
        </mxCell>
        <mxCell id="8N-HG8ODMe7yR5lK4It6-17" value="" style="verticalLabelPosition=bottom;verticalAlign=top;html=1;shape=mxgraph.basic.rect;fillColor2=none;strokeWidth=1;size=20;indent=5;fillColor=#f8cecc;strokeColor=#b85450;rotation=-15;" parent="8N-HG8ODMe7yR5lK4It6-15" vertex="1">
          <mxGeometry y="30" width="76" height="10" as="geometry" />
        </mxCell>
        <mxCell id="8N-HG8ODMe7yR5lK4It6-18" value="" style="shape=umlActor;verticalLabelPosition=bottom;verticalAlign=top;html=1;outlineConnect=0;fillColor=#f8cecc;strokeColor=#b85450;" parent="8N-HG8ODMe7yR5lK4It6-15" vertex="1">
          <mxGeometry y="10" width="16.88888888888889" height="30" as="geometry" />
        </mxCell>
        <mxCell id="8N-HG8ODMe7yR5lK4It6-19" value="" style="shape=umlActor;verticalLabelPosition=bottom;verticalAlign=top;html=1;outlineConnect=0;fillColor=#f8cecc;strokeColor=#b85450;" parent="8N-HG8ODMe7yR5lK4It6-15" vertex="1">
          <mxGeometry x="59.111111111111114" y="-8" width="16.88888888888889" height="30" as="geometry" />
        </mxCell>
        <mxCell id="8N-HG8ODMe7yR5lK4It6-20" value="Unequal Participation" style="text;html=1;align=center;verticalAlign=middle;whiteSpace=wrap;rounded=0;" parent="1" vertex="1">
          <mxGeometry x="19" y="290" width="70" height="20" as="geometry" />
        </mxCell>
        <mxCell id="8N-HG8ODMe7yR5lK4It6-21" value="" style="ellipse;whiteSpace=wrap;html=1;" parent="1" vertex="1">
          <mxGeometry x="33" y="330" width="10" height="10" as="geometry" />
        </mxCell>
        <mxCell id="8N-HG8ODMe7yR5lK4It6-22" value="" style="ellipse;whiteSpace=wrap;html=1;" parent="1" vertex="1">
          <mxGeometry x="47" y="330" width="10" height="10" as="geometry" />
        </mxCell>
        <mxCell id="8N-HG8ODMe7yR5lK4It6-23" value="" style="ellipse;whiteSpace=wrap;html=1;" parent="1" vertex="1">
          <mxGeometry x="61" y="330" width="10" height="10" as="geometry" />
        </mxCell>
        <mxCell id="8N-HG8ODMe7yR5lK4It6-24" value="" style="endArrow=none;dashed=1;html=1;dashPattern=1 3;strokeWidth=2;rounded=0;exitX=0.1;exitY=0.02;exitDx=0;exitDy=0;exitPerimeter=0;entryX=0.83;entryY=1;entryDx=0;entryDy=0;entryPerimeter=0;" parent="1" source="8N-HG8ODMe7yR5lK4It6-2" target="8N-HG8ODMe7yR5lK4It6-7" edge="1">
          <mxGeometry width="50" height="50" relative="1" as="geometry">
            <mxPoint x="456" y="341" as="sourcePoint" />
            <mxPoint x="391" y="234" as="targetPoint" />
          </mxGeometry>
        </mxCell>
        <mxCell id="8N-HG8ODMe7yR5lK4It6-25" value="" style="endArrow=none;dashed=1;html=1;dashPattern=1 3;strokeWidth=2;rounded=0;exitX=0.1;exitY=0.02;exitDx=0;exitDy=0;exitPerimeter=0;entryX=0.59;entryY=1;entryDx=0;entryDy=0;entryPerimeter=0;" parent="1" source="8N-HG8ODMe7yR5lK4It6-2" target="8N-HG8ODMe7yR5lK4It6-8" edge="1">
          <mxGeometry width="50" height="50" relative="1" as="geometry">
            <mxPoint x="232" y="188" as="sourcePoint" />
            <mxPoint x="175" y="90" as="targetPoint" />
          </mxGeometry>
        </mxCell>
        <mxCell id="8N-HG8ODMe7yR5lK4It6-26" value="" style="endArrow=none;dashed=1;html=1;dashPattern=1 3;strokeWidth=2;rounded=0;exitX=0.1;exitY=0.02;exitDx=0;exitDy=0;exitPerimeter=0;entryX=0.08;entryY=1;entryDx=0;entryDy=0;entryPerimeter=0;" parent="1" source="8N-HG8ODMe7yR5lK4It6-2" target="8N-HG8ODMe7yR5lK4It6-9" edge="1">
          <mxGeometry width="50" height="50" relative="1" as="geometry">
            <mxPoint x="242" y="198" as="sourcePoint" />
            <mxPoint x="185" y="100" as="targetPoint" />
          </mxGeometry>
        </mxCell>
      </root>
    </mxGraphModel>
  </diagram>
</mxfile>
